<svg width="116" height="116" viewBox="0 0 116 116" fill="none" xmlns="http://www.w3.org/2000/svg">
<path d="M18.0455 82V35.4545H36.6818C40.1061 35.4545 42.9621 35.9621 45.25 36.9773C47.5379 37.9924 49.2576 39.4015 50.4091 41.2045C51.5606 42.9924 52.1364 45.053 52.1364 47.3864C52.1364 49.2045 51.7727 50.803 51.0455 52.1818C50.3182 53.5455 49.3182 54.6667 48.0455 55.5455C46.7879 56.4091 45.3485 57.0227 43.7273 57.3864V57.8409C45.5 57.9167 47.1591 58.4167 48.7045 59.3409C50.2652 60.2652 51.5303 61.5606 52.5 63.2273C53.4697 64.8788 53.9545 66.8485 53.9545 69.1364C53.9545 71.6061 53.3409 73.8106 52.1136 75.75C50.9015 77.6742 49.1061 79.197 46.7273 80.3182C44.3485 81.4394 41.4167 82 37.9318 82H18.0455ZM27.8864 73.9545H35.9091C38.6515 73.9545 40.6515 73.4318 41.9091 72.3864C43.1667 71.3258 43.7955 69.9167 43.7955 68.1591C43.7955 66.8712 43.4848 65.7348 42.8636 64.75C42.2424 63.7652 41.3561 62.9924 40.2045 62.4318C39.0682 61.8712 37.7121 61.5909 36.1364 61.5909H27.8864V73.9545ZM27.8864 54.9318H35.1818C36.5303 54.9318 37.7273 54.697 38.7727 54.2273C39.8333 53.7424 40.6667 53.0606 41.2727 52.1818C41.8939 51.303 42.2045 50.25 42.2045 49.0227C42.2045 47.3409 41.6061 45.9848 40.4091 44.9545C39.2273 43.9242 37.5455 43.4091 35.3636 43.4091H27.8864V54.9318ZM76.858 82H60.358V35.4545H76.9943C81.6761 35.4545 85.7064 36.3864 89.0852 38.25C92.464 40.0985 95.0625 42.7576 96.8807 46.2273C98.714 49.697 99.6307 53.8485 99.6307 58.6818C99.6307 63.5303 98.714 67.697 96.8807 71.1818C95.0625 74.6667 92.4489 77.3409 89.0398 79.2045C85.6458 81.0682 81.5852 82 76.858 82ZM70.1989 73.5682H76.4489C79.358 73.5682 81.8049 73.053 83.7898 72.0227C85.7898 70.9773 87.2898 69.3636 88.2898 67.1818C89.3049 64.9848 89.8125 62.1515 89.8125 58.6818C89.8125 55.2424 89.3049 52.4318 88.2898 50.25C87.2898 48.0682 85.7973 46.4621 83.8125 45.4318C81.8277 44.4015 79.3807 43.8864 76.4716 43.8864H70.1989V73.5682Z" fill="white"/>
<rect x="2.5" y="2.5" width="111" height="111" stroke="white" stroke-width="5"/>
</svg>
